<mxfile host="app.diagrams.net" agent="Mozilla/5.0 (Windows NT 10.0; Win64; x64) AppleWebKit/537.36 (KHTML, like Gecko) Chrome/129.0.0.0 Safari/537.36" version="24.7.16">
  <diagram name="Page-1" id="10a91c8b-09ff-31b1-d368-03940ed4cc9e">
    <mxGraphModel dx="2074" dy="738" grid="1" gridSize="10" guides="1" tooltips="1" connect="1" arrows="1" fold="1" page="1" pageScale="1" pageWidth="1100" pageHeight="850" background="none" math="0" shadow="0">
      <root>
        <mxCell id="0" />
        <mxCell id="1" parent="0" />
        <mxCell id="M0jYh73kNdw7qBkvu5jj-14" value="&lt;font style=&quot;font-size: 20px;&quot;&gt;fork()&lt;/font&gt;" style="ellipse;whiteSpace=wrap;html=1;aspect=fixed;strokeWidth=2;" vertex="1" parent="1">
          <mxGeometry x="440" y="110" width="80" height="80" as="geometry" />
        </mxCell>
        <mxCell id="M0jYh73kNdw7qBkvu5jj-24" value="" style="endArrow=none;html=1;rounded=0;entryX=0;entryY=1;entryDx=0;entryDy=0;" edge="1" parent="1" source="M0jYh73kNdw7qBkvu5jj-33" target="M0jYh73kNdw7qBkvu5jj-14">
          <mxGeometry width="50" height="50" relative="1" as="geometry">
            <mxPoint x="400" y="270" as="sourcePoint" />
            <mxPoint x="452" y="218" as="targetPoint" />
          </mxGeometry>
        </mxCell>
        <mxCell id="M0jYh73kNdw7qBkvu5jj-25" value="" style="endArrow=none;html=1;rounded=0;entryX=1;entryY=1;entryDx=0;entryDy=0;" edge="1" parent="1" source="M0jYh73kNdw7qBkvu5jj-38" target="M0jYh73kNdw7qBkvu5jj-14">
          <mxGeometry width="50" height="50" relative="1" as="geometry">
            <mxPoint x="560" y="270" as="sourcePoint" />
            <mxPoint x="510" y="220" as="targetPoint" />
          </mxGeometry>
        </mxCell>
        <mxCell id="M0jYh73kNdw7qBkvu5jj-33" value="parent" style="ellipse;whiteSpace=wrap;html=1;aspect=fixed;strokeWidth=2;fontSize=19;" vertex="1" parent="1">
          <mxGeometry x="250" y="240" width="80" height="80" as="geometry" />
        </mxCell>
        <mxCell id="M0jYh73kNdw7qBkvu5jj-34" value="" style="endArrow=none;html=1;rounded=0;entryX=0.075;entryY=0.775;entryDx=0;entryDy=0;entryPerimeter=0;strokeWidth=2;" edge="1" parent="1" target="M0jYh73kNdw7qBkvu5jj-33" source="M0jYh73kNdw7qBkvu5jj-47">
          <mxGeometry width="50" height="50" relative="1" as="geometry">
            <mxPoint x="210" y="360" as="sourcePoint" />
            <mxPoint x="260" y="310" as="targetPoint" />
          </mxGeometry>
        </mxCell>
        <mxCell id="M0jYh73kNdw7qBkvu5jj-35" value="" style="endArrow=none;html=1;rounded=0;entryX=1;entryY=1;entryDx=0;entryDy=0;strokeWidth=2;" edge="1" parent="1" target="M0jYh73kNdw7qBkvu5jj-33" source="M0jYh73kNdw7qBkvu5jj-48">
          <mxGeometry width="50" height="50" relative="1" as="geometry">
            <mxPoint x="370" y="360" as="sourcePoint" />
            <mxPoint x="320" y="310" as="targetPoint" />
          </mxGeometry>
        </mxCell>
        <mxCell id="M0jYh73kNdw7qBkvu5jj-38" value="child0" style="ellipse;whiteSpace=wrap;html=1;aspect=fixed;strokeWidth=2;fontSize=19;" vertex="1" parent="1">
          <mxGeometry x="630" y="240" width="80" height="80" as="geometry" />
        </mxCell>
        <mxCell id="M0jYh73kNdw7qBkvu5jj-39" value="" style="endArrow=none;html=1;rounded=0;strokeWidth=2;" edge="1" parent="1" target="M0jYh73kNdw7qBkvu5jj-38" source="M0jYh73kNdw7qBkvu5jj-41">
          <mxGeometry width="50" height="50" relative="1" as="geometry">
            <mxPoint x="500" y="360" as="sourcePoint" />
            <mxPoint x="550" y="310" as="targetPoint" />
          </mxGeometry>
        </mxCell>
        <mxCell id="M0jYh73kNdw7qBkvu5jj-40" value="" style="endArrow=none;html=1;rounded=0;exitX=0;exitY=1;exitDx=0;exitDy=0;entryX=1;entryY=1;entryDx=0;entryDy=0;strokeWidth=2;" edge="1" parent="1" target="M0jYh73kNdw7qBkvu5jj-38" source="M0jYh73kNdw7qBkvu5jj-54">
          <mxGeometry width="50" height="50" relative="1" as="geometry">
            <mxPoint x="841.7157287525379" y="376.71572875253787" as="sourcePoint" />
            <mxPoint x="610" y="310" as="targetPoint" />
          </mxGeometry>
        </mxCell>
        <mxCell id="M0jYh73kNdw7qBkvu5jj-41" value="child0" style="ellipse;whiteSpace=wrap;html=1;aspect=fixed;direction=south;strokeWidth=2;fontSize=19;" vertex="1" parent="1">
          <mxGeometry x="530" y="365" width="80" height="80" as="geometry" />
        </mxCell>
        <mxCell id="M0jYh73kNdw7qBkvu5jj-42" value="" style="endArrow=none;html=1;rounded=0;entryX=1;entryY=1;entryDx=0;entryDy=0;strokeWidth=2;" edge="1" parent="1" target="M0jYh73kNdw7qBkvu5jj-41" source="M0jYh73kNdw7qBkvu5jj-49">
          <mxGeometry width="50" height="50" relative="1" as="geometry">
            <mxPoint x="490" y="485" as="sourcePoint" />
            <mxPoint x="540" y="435" as="targetPoint" />
          </mxGeometry>
        </mxCell>
        <mxCell id="M0jYh73kNdw7qBkvu5jj-43" value="" style="endArrow=none;html=1;rounded=0;entryX=1;entryY=0;entryDx=0;entryDy=0;strokeWidth=2;" edge="1" parent="1" target="M0jYh73kNdw7qBkvu5jj-41" source="M0jYh73kNdw7qBkvu5jj-52">
          <mxGeometry width="50" height="50" relative="1" as="geometry">
            <mxPoint x="650" y="485" as="sourcePoint" />
            <mxPoint x="600" y="435" as="targetPoint" />
          </mxGeometry>
        </mxCell>
        <mxCell id="M0jYh73kNdw7qBkvu5jj-47" value="parent" style="ellipse;whiteSpace=wrap;html=1;aspect=fixed;strokeWidth=2;fontSize=19;" vertex="1" parent="1">
          <mxGeometry x="170" y="365" width="80" height="80" as="geometry" />
        </mxCell>
        <mxCell id="M0jYh73kNdw7qBkvu5jj-48" value="child1" style="ellipse;whiteSpace=wrap;html=1;aspect=fixed;strokeWidth=2;fontSize=19;" vertex="1" parent="1">
          <mxGeometry x="330" y="365" width="80" height="80" as="geometry" />
        </mxCell>
        <mxCell id="M0jYh73kNdw7qBkvu5jj-49" value="child0" style="ellipse;whiteSpace=wrap;html=1;aspect=fixed;direction=south;strokeWidth=2;fontSize=19;" vertex="1" parent="1">
          <mxGeometry x="450" y="480" width="80" height="80" as="geometry" />
        </mxCell>
        <mxCell id="M0jYh73kNdw7qBkvu5jj-52" value="child3" style="ellipse;whiteSpace=wrap;html=1;aspect=fixed;direction=south;strokeWidth=2;fontSize=19;" vertex="1" parent="1">
          <mxGeometry x="610" y="480" width="80" height="80" as="geometry" />
        </mxCell>
        <mxCell id="M0jYh73kNdw7qBkvu5jj-54" value="child2" style="ellipse;whiteSpace=wrap;html=1;aspect=fixed;direction=south;strokeWidth=2;fontSize=19;" vertex="1" parent="1">
          <mxGeometry x="800" y="365" width="80" height="80" as="geometry" />
        </mxCell>
        <mxCell id="M0jYh73kNdw7qBkvu5jj-55" value="" style="endArrow=none;html=1;rounded=0;entryX=1;entryY=1;entryDx=0;entryDy=0;strokeWidth=2;" edge="1" parent="1" source="M0jYh73kNdw7qBkvu5jj-57" target="M0jYh73kNdw7qBkvu5jj-54">
          <mxGeometry width="50" height="50" relative="1" as="geometry">
            <mxPoint x="760" y="485" as="sourcePoint" />
            <mxPoint x="810" y="435" as="targetPoint" />
          </mxGeometry>
        </mxCell>
        <mxCell id="M0jYh73kNdw7qBkvu5jj-56" value="" style="endArrow=none;html=1;rounded=0;entryX=1;entryY=0;entryDx=0;entryDy=0;strokeWidth=2;" edge="1" parent="1" source="M0jYh73kNdw7qBkvu5jj-58" target="M0jYh73kNdw7qBkvu5jj-54">
          <mxGeometry width="50" height="50" relative="1" as="geometry">
            <mxPoint x="920" y="485" as="sourcePoint" />
            <mxPoint x="870" y="435" as="targetPoint" />
          </mxGeometry>
        </mxCell>
        <mxCell id="M0jYh73kNdw7qBkvu5jj-57" value="child2" style="ellipse;whiteSpace=wrap;html=1;aspect=fixed;direction=south;strokeWidth=2;fontSize=19;" vertex="1" parent="1">
          <mxGeometry x="720" y="480" width="80" height="80" as="geometry" />
        </mxCell>
        <mxCell id="M0jYh73kNdw7qBkvu5jj-58" value="child4" style="ellipse;whiteSpace=wrap;html=1;aspect=fixed;direction=south;strokeWidth=2;fontSize=19;" vertex="1" parent="1">
          <mxGeometry x="880" y="480" width="80" height="80" as="geometry" />
        </mxCell>
      </root>
    </mxGraphModel>
  </diagram>
</mxfile>
